<svg id="Layer_1" data-name="Layer 1" xmlns="http://www.w3.org/2000/svg" viewBox="0 0 361.05 459.38"><defs><style>.cls-1{fill:#fff;}</style></defs><path class="cls-1" d="M632.74,507.72v64.57a6.07,6.07,0,0,1-6.07,6.07H537a6.07,6.07,0,0,0-6.07,6.07v57.85a6,6,0,0,1-8.79,5.34l-.09,0-73.94-41.36-6.49-3.63a19.38,19.38,0,0,1-10.08-16.89v-90a19.41,19.41,0,0,1,10.08-16.89l6.49-3.63,73.94-41.35.09-.05a6,6,0,0,1,8.79,5.34v56.43a6.07,6.07,0,0,0,6.07,6.07h89.63A6.07,6.07,0,0,1,632.74,507.72Z" transform="translate(-359.47 -310.31)"/><path class="cls-1" d="M718.39,693.49,681,761.84a15.11,15.11,0,0,1-13.28,7.85l-126.45-.16a15.1,15.1,0,0,1-15.08-15.11v-25l.21.06V713.29l-.21-.1v-27a15.1,15.1,0,0,1,15.1-15.1H705.13A15.11,15.11,0,0,1,718.39,693.49Z" transform="translate(-359.47 -310.31)"/><path class="cls-1" d="M526.38,713.29v16.23l-.21-.06V713.19Z" transform="translate(-359.47 -310.31)"/><path class="cls-1" d="M705.39,411H541.27a15.1,15.1,0,0,1-15.1-15.11V365l.21-.1V348.68l-.21.06V325.58a15.1,15.1,0,0,1,15.08-15.1l126.36-.17a15.09,15.09,0,0,1,13.34,8l37.76,70.49A15.11,15.11,0,0,1,705.39,411Z" transform="translate(-359.47 -310.31)"/><path class="cls-1" d="M526.38,348.68v16.23l-.21.1V348.74Z" transform="translate(-359.47 -310.31)"/><path class="cls-1" d="M526.17,713.19v16.27l.21.06V713.29Zm0-364.45V365l.21-.1V348.68Z" transform="translate(-359.47 -310.31)"/><path class="cls-1" d="M526.17,330.26v54.56h-.12a27.2,27.2,0,0,1-19.94-8.67L404.48,433,394,438.86a31.43,31.43,0,0,0-16.33,27.37V612A31.37,31.37,0,0,0,394,639.31l10.51,5.88L506.56,702.3a27.18,27.18,0,0,1,19.49-8.2h.12v54.55h-.12a27.3,27.3,0,0,1-26.7-32.9l-110.88-62-11.36-6.35a33.94,33.94,0,0,1-17.64-29.57V460.37a34,34,0,0,1,17.64-29.56l11.36-6.35,110.76-61.94a27.27,27.27,0,0,1,26.82-32.26Z" transform="translate(-359.47 -310.31)"/><path class="cls-1" d="M526.38,348.68v16.23l-.21.1V348.74Z" transform="translate(-359.47 -310.31)"/><path class="cls-1" d="M526.38,713.29v16.23l-.21-.06V713.19Z" transform="translate(-359.47 -310.31)"/></svg>